<?xml version="1.0" encoding="utf-8"?>
<!-- Generator: Adobe Illustrator 14.0.0, SVG Export Plug-In . SVG Version: 6.00 Build 43363)  -->
<!DOCTYPE svg PUBLIC "-//W3C//DTD SVG 1.1//EN" "http://www.w3.org/Graphics/SVG/1.1/DTD/svg11.dtd">
<svg version="1.1" id="Layer_1" xmlns="http://www.w3.org/2000/svg" xmlns:xlink="http://www.w3.org/1999/xlink" x="0px" y="0px"
	 width="140px" height="140px" viewBox="-198.858 794.448 140 140" enable-background="new -198.858 794.448 140 140"
	 xml:space="preserve">
<g>
	<g>
		<polygon fill="#4B5860" points="-110.721,817.476 -104.146,799.946 -97.91,817.476 		"/>
		<g>
			<path fill="#4B5860" d="M-183.625,816.489c1.062,0,1.504-0.461,1.504-1.547v-3.576h-6.63v3.617c0,1.064,0.421,1.504,1.548,1.504
				h0.301v0.787h-6.448v-0.787h0.341c1.024,0,1.486-0.461,1.486-1.465v-7.996c0-1.006-0.441-1.467-1.504-1.467h-0.321v-0.783h6.448
				v0.783h-0.282c-1.047,0-1.567,0.338-1.567,1.467v3.15h6.63v-3.092c0-1.123-0.442-1.525-1.606-1.525h-0.181v-0.783h6.429v0.783
				h-0.362c-1.024,0-1.507,0.381-1.507,1.467v7.955c0,1.045,0.384,1.506,1.551,1.506h0.32v0.785h-6.429v-0.785h0.28V816.489z"/>
			<path fill="#4B5860" d="M-164.643,805.882h-4.4v4.52h3.255c1.105,0,1.506-0.381,1.506-1.447h0.804v3.998h-0.804
				c0-1.084-0.261-1.445-1.807-1.445h-2.955v3.615c0,0.867,0.161,1.043,0.744,1.043h3.355c1.306,0,1.927-0.359,2.31-2.049h0.764
				l-0.242,3.158h-12.093v-0.787h0.824c1.166,0,1.565-0.461,1.565-1.443v-8.016c0-1.086-0.359-1.467-1.75-1.467h-0.199v-0.785
				h11.067l0.202,2.91h-0.762C-163.457,806.323-163.719,805.882-164.643,805.882z"/>
			<path fill="#4B5860" d="M-153.248,815.022c0,1.025,0.442,1.467,1.587,1.467h0.604v0.787h-7.032v-0.787h0.321
				c1.226,0,1.748-0.301,1.748-1.467v-7.938c0-0.965-0.26-1.523-1.607-1.523h-0.422v-0.785c1.005-0.059,1.769-0.104,2.593-0.162
				c1.125-0.08,2.573-0.139,3.293-0.139c2.956,0,4.562,0.381,5.565,1.383c0.665,0.664,0.967,1.43,0.967,2.295
				c0,1.523-1.107,2.732-2.974,3.234c1.325,1.104,2.028,2.688,3.455,4.115c0.821,0.822,1.387,1.063,2.648,1.182v0.789
				c-0.437,0.016-0.64,0.016-1.244,0.016c-2.491,0-3.516-0.357-4.458-1.305c-1.004-1.006-2.169-3.117-3.458-4.219h-1.587V815.022
				L-153.248,815.022z M-153.248,811.126h0.785c2.432,0,3.839-0.744,3.839-2.895c0-2.131-1.629-2.895-3.575-2.895h-1.049V811.126z"
				/>
			<path fill="#4B5860" d="M-138.682,804.776h6.389v0.785h-0.341c-1.085,0-1.527,0.461-1.527,1.504v7.957
				c0,0.984,0.344,1.465,1.565,1.465h0.301v0.787h-6.388v-0.787h0.281c1.063,0,1.468-0.498,1.468-1.387v-8.035
				c0-1.045-0.361-1.504-1.489-1.504h-0.26L-138.682,804.776L-138.682,804.776z"/>
			<path fill="#4B5860" d="M-119.452,814.983c0,1.045,0.319,1.504,1.749,1.504h0.479v0.787h-7.229v-0.787h0.678
				c1.106,0,1.552-0.439,1.552-1.504v-9.166h-2.373c-1.546,0-1.788,0.242-2.171,2.375h-0.822l0.362-3.76h0.643
				c0.16,0.143,0.26,0.24,0.383,0.287c0.141,0.033,0.302,0.059,0.58,0.059h9.565c0.541,0,0.64-0.043,0.963-0.346h0.643l0.362,3.76
				h-0.822c-0.38-2.109-0.625-2.375-2.171-2.375h-2.37V814.983z"/>
			<path fill="#4B5860" d="M-80.022,812.03c-1.069,0.021-1.429,0.34-1.429,1.264v2.992c-1.446,0.666-3.517,1.268-5.248,1.268
				c-5.08,0-7.533-2.834-7.533-6.693c0-3.674,3.037-6.385,7.313-6.385c2.073,0,3.679,0.703,4.361,0.703
				c0.299,0,0.463-0.084,0.603-0.262h0.505v3.674h-0.807c-0.54-2.045-2.067-3.254-4.155-3.254c-2.855,0-4.822,2.248-4.822,5.506
				c0,3.297,2.065,5.746,4.86,5.746c0.763,0,1.613-0.203,2.149-0.518v-2.777c0-1.004-0.421-1.223-2.472-1.264v-0.766h6.675V812.03z"
				/>
			<path fill="#4B5860" d="M-67.146,805.882h-4.403v4.52h3.252c1.109,0,1.509-0.381,1.509-1.447h0.804v3.998h-0.804
				c0-1.084-0.261-1.445-1.806-1.445h-2.957v3.615c0,0.867,0.16,1.043,0.74,1.043h3.36c1.306,0,1.925-0.359,2.311-2.049h0.759
				l-0.239,3.158h-12.093v-0.787h0.821c1.166,0,1.568-0.461,1.568-1.443v-8.016c0-1.086-0.36-1.467-1.749-1.467h-0.2v-0.785h11.068
				l0.203,2.91h-0.766C-65.963,806.323-66.223,805.882-67.146,805.882z"/>
		</g>
	</g>
	<g>
		<path fill="#0D4F99" d="M-64.115,862.548v-3.805c0,0-14.699,0-14.795,0c-0.532-0.027-12.799-0.629-22.299-0.742v3.805
			c9.574,0.119,22.025,0.732,22.161,0.742H-64.115z"/>
		<path fill="#0D4F99" d="M-130.752,903.501c0.161-0.045,14.688-3.934,24.214-4.582v-8.383c-9.513,0.561-22.959,3.979-25.847,4.736
			c-1.07,0-61.472,0-61.472,0v8.373h62.57L-130.752,903.501z"/>
		<path fill="#0D4F99" d="M-79.068,875.866h14.953v-3.805c0,0-14.505,0-14.726,0c-1.179-0.139-12.978-1.512-22.368-1.832v3.811
			c9.537,0.34,21.894,1.801,22.033,1.818L-79.068,875.866z"/>
		<path fill="#0D4F99" d="M-89.229,831.649c1.995,1.035,4.253,2.213,9.015,2.213c4.789,0,7.1-1.188,9.134-2.238
			c1.901-0.971,3.541-1.816,7.099-1.816v-2.281c-4.103,0-6.145,1.051-8.124,2.066c-1.986,1.021-3.862,1.986-8.108,1.986
			c-4.214,0-6.043-0.951-7.976-1.959c-1.977-1.027-4.014-2.088-8.257-2.092c-2.009-0.004-3.521,0.232-4.764,0.596v2.393
			c1.2-0.42,2.659-0.709,4.764-0.707C-92.759,829.812-91.044,830.704-89.229,831.649z"/>
		<path fill="#0D4F99" d="M-193.604,883.095v6.854h62.329l0.308-0.061c0.162-0.029,14.688-2.691,24.43-3.166v-6.855
			c-9.566,0.43-23.078,2.82-25.362,3.23C-132.507,883.095-193.604,883.095-193.604,883.095z"/>
		<path fill="#0D4F99" d="M-89.229,836.214c1.995,1.037,4.253,2.213,9.015,2.213c4.789,0,7.1-1.188,9.134-2.238
			c1.901-0.971,3.541-1.814,7.099-1.814v-2.283c-4.103,0-6.145,1.051-8.124,2.068c-1.986,1.02-3.862,1.98-8.108,1.98
			c-4.214,0-6.043-0.951-7.976-1.957c-1.977-1.025-4.014-2.088-8.257-2.09c-2.009-0.006-3.521,0.232-4.764,0.596v2.396
			c1.2-0.426,2.659-0.715,4.764-0.709C-92.756,834.38-91.044,835.265-89.229,836.214z"/>
		<path fill="#0D4F99" d="M-64.115,848.474v-2.283H-78.95c-0.143-0.004-14.359-0.305-22.259-0.371v2.285
			c7.884,0.064,22.073,0.365,22.23,0.369H-64.115L-64.115,848.474z"/>
		<path fill="#0D4F99" d="M-177.631,833.804c4.313,0,6.499-1.115,8.611-2.193c1.968-1.002,3.829-1.945,7.615-1.945
			c3.786,0.002,5.645,0.951,7.611,1.947c2.116,1.072,4.302,2.189,8.616,2.189c4.287,0,6.426-1.107,8.492-2.174
			c1.955-1.012,3.809-1.965,7.734-1.963c3.829,0.002,5.531,0.922,7.342,1.896c2.046,1.104,4.161,2.24,8.884,2.24
			c2.76,0,4.673-0.408,6.188-0.955v-2.496c-1.468,0.639-3.243,1.121-6.188,1.121c-4.167,0-5.954-0.961-7.838-1.979
			c-1.97-1.059-4.003-2.154-8.385-2.158c-4.461-0.004-6.644,1.121-8.751,2.211c-1.916,0.99-3.726,1.924-7.48,1.924
			c-3.784,0-5.645-0.945-7.615-1.947c-2.113-1.076-4.298-2.184-8.608-2.188c-4.315-0.004-6.503,1.109-8.619,2.188
			c-1.966,1.004-3.825,1.947-7.61,1.947c-3.726,0-5.491-0.926-7.359-1.904c-2.1-1.098-4.272-2.232-8.867-2.232v2.328
			c4.053,0,5.896,0.965,7.844,1.984C-183.99,832.71-181.897,833.804-177.631,833.804z"/>
		<path fill="#0D4F99" d="M-131.631,875.856c0.163-0.018,15.261-1.686,25.093-1.873v-3.805c-9.748,0.178-24.141,1.744-25.404,1.881
			c-0.21,0-61.915,0-61.915,0v3.805h62.122L-131.631,875.856z"/>
		<path fill="#0D4F99" d="M-78.339,883.095c-2.188-0.461-13.716-2.818-22.87-3.23v6.857c9.306,0.467,21.648,3.115,21.785,3.146
			l0.355,0.08h15.21v-6.854C-63.858,883.095-77.654,883.095-78.339,883.095z"/>
		<path fill="#0D4F99" d="M-177.631,838.444c4.313,0,6.499-1.115,8.611-2.188c1.968-1.004,3.829-1.951,7.615-1.945
			c3.786,0.004,5.645,0.945,7.611,1.945c2.116,1.07,4.302,2.188,8.616,2.188c4.287,0,6.426-1.104,8.492-2.172
			c1.955-1.012,3.809-1.969,7.734-1.961c3.829,0.004,5.531,0.922,7.342,1.891c2.046,1.104,4.161,2.242,8.884,2.242
			c2.76,0,4.673-0.408,6.188-0.955v-2.496c-1.468,0.643-3.243,1.117-6.188,1.117c-4.167,0-5.954-0.955-7.838-1.969
			c-1.97-1.064-4.003-2.158-8.385-2.16c-4.461-0.01-6.644,1.117-8.751,2.209c-1.916,0.986-3.726,1.92-7.48,1.92
			c-3.784,0-5.645-0.939-7.615-1.941c-2.113-1.074-4.298-2.188-8.608-2.189c-4.315-0.008-6.503,1.105-8.619,2.184
			c-1.966,1.002-3.825,1.945-7.61,1.945c-3.726,0-5.491-0.92-7.359-1.896c-2.1-1.1-4.272-2.232-8.867-2.232v2.328
			c4.053,0,5.896,0.965,7.844,1.982C-183.99,837.351-181.897,838.444-177.631,838.444z"/>
		<path fill="#0D4F99" d="M-79.598,903.646h15.48v-8.373c0,0-13.053,0-14.207,0c-2.714-0.828-13.838-4.082-22.887-4.711v8.391
			c9.016,0.738,20.86,4.455,20.994,4.496L-79.598,903.646z"/>
		<path fill="#0D4F99" d="M-106.538,861.806v-3.805c-9.857,0.096-24.586,0.715-25.341,0.742c-0.078,0-61.978,0-61.978,0v3.805
			h62.097C-131.595,862.54-116.531,861.903-106.538,861.806z"/>
		<path fill="#0D4F99" d="M-106.538,848.104v-2.285c-8.455,0.07-25.132,0.367-25.323,0.371h-61.996v2.283h62.017
			C-131.631,848.47-114.98,848.173-106.538,848.104z"/>
		<path fill="#0D4F99" d="M-89.167,918.185c-0.331,0-0.629,0.063-0.899,0.186c-0.27,0.125-0.496,0.313-0.684,0.563
			c-0.185,0.254-0.33,0.572-0.43,0.959c-0.101,0.389-0.149,0.846-0.149,1.371c0,0.533,0.04,0.984,0.128,1.354
			c0.086,0.371,0.208,0.672,0.366,0.906c0.16,0.234,0.356,0.402,0.586,0.506c0.23,0.105,0.487,0.156,0.773,0.156
			c0.457,0,0.844-0.094,1.162-0.285c0.32-0.189,0.622-0.459,0.906-0.807v-4.084c-0.248-0.301-0.519-0.514-0.812-0.639
			C-88.514,918.247-88.829,918.185-89.167,918.185z"/>
		<path fill="#0D4F99" d="M-97.675,918.726c-0.159-0.189-0.361-0.338-0.604-0.449c-0.243-0.109-0.529-0.162-0.854-0.162
			c-0.64,0-1.141,0.18-1.499,0.541c-0.361,0.361-0.594,0.873-0.693,1.535h4.117c0-0.285-0.037-0.553-0.113-0.803
			C-97.396,919.136-97.516,918.915-97.675,918.726z"/>
		<path fill="#0D4F99" d="M-164.493,916.054c-0.349-0.391-0.773-0.689-1.275-0.896c-0.501-0.205-1.064-0.311-1.69-0.311
			c-0.628,0-1.193,0.105-1.696,0.311c-0.503,0.207-0.931,0.508-1.283,0.896s-0.623,0.865-0.811,1.424
			c-0.19,0.559-0.285,1.191-0.285,1.895c0,0.705,0.095,1.338,0.285,1.896c0.189,0.559,0.458,1.033,0.811,1.42
			s0.781,0.686,1.283,0.893c0.503,0.207,1.068,0.311,1.696,0.311c0.627,0,1.19-0.104,1.69-0.311c0.5-0.207,0.924-0.506,1.275-0.893
			c0.349-0.387,0.617-0.861,0.803-1.42c0.187-0.559,0.28-1.191,0.28-1.896c0-0.703-0.093-1.336-0.28-1.895
			C-163.876,916.919-164.144,916.444-164.493,916.054z"/>
		<path fill="#0D4F99" d="M-101.151,902.524v2.156h-0.097c0,1.201-1.148,2.178-2.571,2.178c-1.418,0-2.572-0.977-2.572-2.178h-0.09
			v-2.131c-9.482,0.627-22.603,3.967-25.447,4.709c-1.07,0-61.475,0-61.475,0l-0.37,0.014l-0.012,0.369v21.309h129.713v-21.691
			c0,0-12.639,0-13.796,0C-80.623,906.419-92.03,903.083-101.151,902.524z M-161.43,921.989c-0.314,0.803-0.755,1.496-1.323,2.082
			c-0.568,0.584-1.252,1.041-2.051,1.369s-1.684,0.494-2.654,0.494c-0.971,0-1.857-0.164-2.659-0.494
			c-0.802-0.328-1.489-0.783-2.06-1.369c-0.571-0.588-1.013-1.279-1.327-2.082s-0.47-1.674-0.47-2.615s0.158-1.811,0.47-2.613
			c0.314-0.803,0.756-1.498,1.327-2.082s1.258-1.043,2.06-1.371c0.802-0.328,1.688-0.492,2.659-0.492
			c0.97,0,1.855,0.164,2.654,0.496s1.483,0.789,2.051,1.371c0.568,0.584,1.009,1.275,1.323,2.078s0.472,1.672,0.472,2.613
			S-161.116,921.187-161.43,921.989z M-156.475,925.792h-2.193v-9.107h2.193V925.792z M-156.262,914.563
			c-0.077,0.164-0.179,0.309-0.306,0.434s-0.276,0.223-0.448,0.297c-0.171,0.074-0.355,0.111-0.549,0.111
			c-0.19,0-0.369-0.037-0.538-0.111c-0.168-0.074-0.315-0.172-0.439-0.297s-0.223-0.27-0.296-0.434
			c-0.073-0.166-0.11-0.344-0.11-0.533c0-0.195,0.037-0.381,0.11-0.549c0.073-0.172,0.172-0.32,0.296-0.445
			c0.125-0.125,0.271-0.223,0.439-0.297c0.168-0.072,0.348-0.111,0.538-0.111c0.194,0,0.379,0.037,0.549,0.111
			c0.172,0.074,0.321,0.174,0.448,0.297c0.127,0.125,0.229,0.273,0.306,0.445c0.077,0.17,0.115,0.354,0.115,0.549
			C-156.147,914.22-156.185,914.397-156.262,914.563z M-151.479,925.792h-2.193v-13.191h2.193V925.792z M-136.999,925.792h-7.527
			v-12.836h2.389v10.865h5.14L-136.999,925.792L-136.999,925.792z M-132.925,925.792h-2.193v-9.107h2.193V925.792z
			 M-132.713,914.563c-0.076,0.164-0.178,0.309-0.306,0.434c-0.127,0.125-0.276,0.223-0.448,0.297s-0.354,0.111-0.55,0.111
			c-0.189,0-0.368-0.037-0.536-0.111c-0.169-0.074-0.315-0.172-0.439-0.297c-0.125-0.125-0.224-0.27-0.298-0.434
			c-0.073-0.166-0.11-0.344-0.11-0.533c0-0.195,0.037-0.381,0.11-0.549c0.074-0.172,0.173-0.32,0.298-0.445s0.271-0.223,0.439-0.297
			c0.168-0.072,0.347-0.111,0.536-0.111c0.195,0,0.38,0.037,0.55,0.111c0.172,0.074,0.321,0.174,0.448,0.297
			c0.128,0.125,0.229,0.273,0.306,0.445c0.077,0.17,0.115,0.354,0.115,0.549C-132.598,914.22-132.636,914.397-132.713,914.563z
			 M-117.393,925.792h-2.191v-5.797c0-0.58-0.128-1.018-0.383-1.309c-0.254-0.293-0.627-0.439-1.117-0.439
			c-0.227,0-0.434,0.037-0.627,0.115c-0.192,0.078-0.358,0.188-0.507,0.332c-0.144,0.146-0.258,0.328-0.341,0.547
			s-0.125,0.471-0.125,0.754v5.799h-2.202v-5.799c0-0.607-0.121-1.053-0.367-1.33c-0.245-0.279-0.608-0.418-1.087-0.418
			c-0.313,0-0.608,0.078-0.885,0.234c-0.276,0.158-0.53,0.373-0.767,0.643v6.668h-2.194v-9.107h1.341
			c0.285,0,0.472,0.133,0.559,0.398l0.143,0.676c0.159-0.178,0.325-0.34,0.502-0.488c0.173-0.148,0.36-0.275,0.559-0.383
			c0.197-0.107,0.411-0.191,0.64-0.254c0.228-0.064,0.478-0.094,0.749-0.094c0.574,0,1.047,0.156,1.416,0.465
			c0.37,0.311,0.646,0.725,0.831,1.238c0.142-0.301,0.319-0.561,0.532-0.775c0.213-0.217,0.446-0.393,0.702-0.529
			c0.254-0.135,0.524-0.234,0.812-0.301c0.288-0.064,0.575-0.096,0.865-0.096c0.501,0,0.949,0.076,1.34,0.23
			c0.392,0.154,0.72,0.379,0.986,0.674c0.266,0.295,0.469,0.656,0.608,1.084c0.139,0.426,0.207,0.914,0.207,1.465v5.797H-117.393z
			 M-112.614,925.792h-2.194v-9.107h2.194V925.792z M-112.4,914.563c-0.077,0.164-0.18,0.309-0.308,0.434
			c-0.126,0.125-0.275,0.223-0.448,0.297c-0.169,0.074-0.354,0.111-0.549,0.111c-0.188,0-0.368-0.037-0.538-0.111
			c-0.169-0.074-0.315-0.172-0.439-0.297s-0.223-0.27-0.296-0.434c-0.073-0.166-0.11-0.344-0.11-0.533
			c0-0.195,0.035-0.381,0.11-0.549c0.074-0.172,0.172-0.32,0.296-0.445s0.272-0.223,0.439-0.297c0.169-0.072,0.35-0.111,0.538-0.111
			c0.195,0,0.38,0.037,0.549,0.111c0.173,0.074,0.322,0.174,0.448,0.297c0.128,0.125,0.23,0.273,0.308,0.445
			c0.076,0.17,0.113,0.354,0.113,0.549C-112.287,914.22-112.324,914.397-112.4,914.563z M-105.656,925.731
			c-0.415,0.137-0.843,0.203-1.287,0.203c-0.789,0-1.395-0.223-1.818-0.67c-0.427-0.447-0.641-1.064-0.641-1.852v-5.086h-0.923
			c-0.118,0-0.224-0.039-0.307-0.115c-0.084-0.078-0.129-0.191-0.129-0.346v-0.869l1.465-0.242l0.462-2.484
			c0.024-0.119,0.078-0.209,0.164-0.275c0.086-0.064,0.194-0.1,0.323-0.1h1.138v2.869h2.395v1.563h-2.395v4.936
			c0,0.285,0.07,0.508,0.214,0.666c0.141,0.16,0.33,0.24,0.567,0.24c0.135,0,0.248-0.016,0.341-0.049
			c0.095-0.035,0.172-0.066,0.239-0.104c0.069-0.035,0.129-0.068,0.183-0.102c0.054-0.031,0.107-0.049,0.158-0.049
			c0.064,0,0.118,0.018,0.16,0.049c0.04,0.033,0.087,0.082,0.133,0.146l0.656,1.066
			C-104.874,925.394-105.24,925.595-105.656,925.731z M-95.256,921.085c-0.016,0.107-0.042,0.193-0.081,0.256
			c-0.04,0.063-0.091,0.107-0.157,0.133c-0.063,0.029-0.146,0.041-0.248,0.041h-5.629c0.066,0.936,0.317,1.621,0.757,2.059
			c0.437,0.439,1.017,0.656,1.739,0.656c0.354,0,0.662-0.041,0.92-0.123c0.257-0.084,0.48-0.176,0.674-0.277
			c0.191-0.1,0.36-0.191,0.505-0.273c0.146-0.086,0.287-0.127,0.422-0.127c0.09,0,0.164,0.02,0.23,0.055
			c0.063,0.033,0.12,0.086,0.169,0.15l0.638,0.799c-0.242,0.285-0.514,0.521-0.816,0.715c-0.3,0.193-0.615,0.346-0.946,0.461
			c-0.328,0.117-0.662,0.197-1.001,0.246c-0.341,0.047-0.671,0.07-0.989,0.07c-0.634,0-1.222-0.107-1.767-0.316
			c-0.544-0.209-1.017-0.52-1.42-0.932c-0.402-0.412-0.72-0.92-0.949-1.527c-0.23-0.605-0.347-1.309-0.347-2.107
			c0-0.623,0.1-1.207,0.302-1.754c0.2-0.547,0.487-1.023,0.862-1.43c0.377-0.406,0.836-0.729,1.378-0.963
			c0.541-0.238,1.151-0.355,1.833-0.355c0.573,0,1.102,0.092,1.582,0.275c0.481,0.184,0.897,0.451,1.247,0.803
			c0.349,0.354,0.622,0.785,0.816,1.297c0.197,0.512,0.291,1.096,0.291,1.754C-95.235,920.837-95.241,920.974-95.256,921.085z
			 M-85.215,925.792h-1.342c-0.284,0-0.47-0.133-0.558-0.398l-0.177-0.879c-0.189,0.213-0.389,0.404-0.595,0.576
			c-0.209,0.172-0.431,0.318-0.671,0.445c-0.241,0.123-0.499,0.219-0.774,0.287c-0.275,0.066-0.571,0.102-0.891,0.102
			c-0.498,0-0.954-0.104-1.369-0.313c-0.414-0.205-0.771-0.506-1.067-0.898c-0.299-0.395-0.532-0.881-0.693-1.461
			c-0.163-0.58-0.244-1.242-0.244-1.988c0-0.676,0.092-1.303,0.275-1.881s0.447-1.084,0.792-1.51
			c0.343-0.426,0.753-0.758,1.233-0.998c0.481-0.238,1.018-0.359,1.615-0.359c0.509,0,0.945,0.082,1.307,0.244
			c0.361,0.166,0.684,0.383,0.967,0.652v-4.811h2.194v13.189H-85.215z"/>
	</g>
</g>
</svg>
